<!DOCTYPE svg PUBLIC "-//W3C//DTD SVG 1.1//EN" "http://www.w3.org/Graphics/SVG/1.1/DTD/svg11.dtd">
<!-- Uploaded to: SVG Repo, www.svgrepo.com, Transformed by: SVG Repo Mixer Tools -->
<svg version="1.1" id="Layer_1" xmlns="http://www.w3.org/2000/svg" xmlns:xlink="http://www.w3.org/1999/xlink" viewBox="-92.16 -92.16 696.32 696.32" xml:space="preserve" width="800px" height="800px" fill="#000000" stroke="#000000" stroke-width="0.00512">
<g id="SVGRepo_bgCarrier" stroke-width="0">
<rect x="-92.16" y="-92.16" width="696.32" height="696.32" rx="348.16" fill="#000000" strokewidth="0"/>
</g>
<g id="SVGRepo_tracerCarrier" stroke-linecap="round" stroke-linejoin="round"/>
<g id="SVGRepo_iconCarrier"> <rect y="59.037" style="fill:#FF9811;" width="512" height="417.959"/> <rect x="51.2" y="117.551" style="fill:#FFDA44;" width="408.555" height="305.11"/> <g> <path style="fill:#FFFFFF;" d="M186.619,428.178v-74.324l14.106-7.962l-7.711-13.646l-13.625,7.701l-68.305-39.434v-29.571H95.41 v29.717l-28.536,16.478v-57.48H51.2v66.529l-23.583,13.615l-11.943-6.855v-73.289H0v217.339h52.245v-15.673H15.673v-9.415 l12.309-7.126l67.427,38.933v27.763h15.673v-27.617l70.416-40.657l15.809,8.328l7.314-13.855L186.619,428.178z M20.125,431.219 l-4.451,2.581v-82.787l4.451,2.55V431.219z"/> <rect x="151.51" y="461.322" style="fill:#FFFFFF;" width="191.216" height="15.673"/> </g> <g> <rect x="78.367" y="0.522" style="fill:#FF5023;" width="60.604" height="158.824"/> <rect x="371.984" y="0.522" style="fill:#FF5023;" width="60.604" height="158.824"/> </g> <polygon points="138.971,133.224 371.984,133.224 371.984,159.347 432.588,159.347 432.588,110.237 416.914,110.237 416.914,143.673 387.657,143.673 387.657,16.196 393.927,16.196 393.927,59.037 409.6,59.037 409.6,16.196 416.914,16.196 416.914,99.788 432.588,99.788 432.588,0.522 371.984,0.522 371.984,88.816 311.38,88.816 311.38,104.49 371.984,104.49 371.984,117.551 138.971,117.551 138.971,104.49 227.788,104.49 227.788,88.816 138.971,88.816 138.971,0.522 78.367,0.522 78.367,99.788 94.041,99.788 94.041,16.196 123.298,16.196 123.298,143.673 115.984,143.673 115.984,100.833 100.31,100.833 100.31,143.673 94.041,143.673 94.041,110.237 78.367,110.237 78.367,159.347 138.971,159.347 "/> <polygon points="496.327,435.722 353.176,435.722 353.176,451.396 496.327,451.396 496.327,461.322 435.722,461.322 435.722,476.996 512,476.996 512,419.527 496.327,419.527 "/> <rect x="151.51" y="461.322" width="256" height="15.673"/> <polygon points="455.576,59.037 455.576,74.71 496.327,74.71 496.327,398.629 512,398.629 512,59.037 "/> <rect x="189.127" y="59.037" width="169.273" height="15.673"/> <rect x="153.6" y="59.037" width="26.122" height="15.673"/> <rect x="213.159" y="406.988" width="26.122" height="15.673"/> <polygon points="248.686,422.661 459.755,422.661 459.755,125.91 444.082,125.91 444.082,406.988 248.686,406.988 "/> <path d="M251.483,311.092c2.101-4.321,3.154-9.146,3.154-14.489c0-7.954-2.19-14.686-6.563-20.199 c-4.376-5.511-10.085-8.891-17.13-10.143c3.18-0.566,6.106-1.704,8.778-3.409c2.669-1.704,4.97-3.807,6.904-6.306 c1.931-2.498,3.41-5.284,4.432-8.353c1.023-3.068,1.534-6.307,1.534-9.715c0-4.543-0.937-8.664-2.813-12.358 c-1.876-3.692-4.546-6.845-8.011-9.461c-3.467-2.612-7.585-4.658-12.358-6.136c-4.772-1.475-10.057-2.216-15.852-2.216 c-4.432,0-8.752,0.426-12.955,1.279c-4.206,0.853-8.097,2.046-11.677,3.58c-3.579,1.534-6.792,3.353-9.631,5.455 c-2.841,2.104-5.114,4.462-6.818,7.074l14.318,16.022c2.613-4.318,5.992-7.671,10.143-10.057c4.146-2.387,8.834-3.58,14.062-3.58 c5.114,0,9.26,1.137,12.443,3.41c3.181,2.275,4.773,5.74,4.773,10.398c0,4.887-1.933,8.893-5.795,12.017 c-3.865,3.127-9.319,4.687-16.364,4.687h-5.284v17.045h4.772c8.523,0,14.886,1.593,19.091,4.773 c4.203,3.183,6.307,7.729,6.307,13.637c0,5.683-1.819,9.886-5.455,12.614c-3.638,2.727-8.922,4.091-15.852,4.091 c-6.137,0-11.25-1.023-15.341-3.068c-4.092-2.046-7.615-4.944-10.568-8.694l-12.955,16.194c4.432,5.34,9.971,9.402,16.619,12.188 c6.648,2.784,14.289,4.176,22.927,4.176c6.818,0,12.955-0.825,18.409-2.472c5.455-1.649,10.083-3.979,13.892-6.989 C246.425,319.074,249.378,315.41,251.483,311.092z"/> <path d="M296.228,209.159c-0.57,1.023-1.905,2.416-4.006,4.176c-2.104,1.763-4.576,3.553-7.415,5.37 c-2.841,1.819-5.74,3.382-8.694,4.687c-2.956,1.307-5.454,1.96-7.5,1.96v21.307c2.158,0,4.629-0.397,7.415-1.192 c2.784-0.794,5.48-1.817,8.097-3.069c2.612-1.25,5.028-2.584,7.244-4.006c2.215-1.419,3.835-2.812,4.858-4.175v77.063h-24.205 v20.625h69.206V311.28h-21.648V209.159L296.228,209.159L296.228,209.159z"/> <path d="M181.504,443.204l15.805,8.333l7.31-13.866l-17.999-9.49v-74.323l14.105-7.965l-7.707-13.647l-13.635,7.7l-68.297-39.431 V270.94H95.413v29.715l-28.539,16.478V125.91H51.2v200.271l-23.581,13.614l-11.945-6.847V74.71H55.38V59.037H0v417.959h52.245 v-15.673H15.673v-9.417l12.304-7.122l67.437,38.935v27.759h15.673v-27.619L181.504,443.204z M111.087,465.761v-13.968l41.387-23.895 l12.644,6.666L111.087,465.761z M35.797,422.147v-59.596l12.096,6.934v45.661L35.797,422.147z M63.566,378.47l12.096,6.934v13.668 l-12.096,7.001C63.566,406.073,63.566,378.47,63.566,378.47z M103.372,378.288l12.037,6.949v13.899l-12.037,6.95l-12.037-6.95 v-13.899L103.372,378.288z M111.087,419.729l12.358-7.136l12.644,6.666l-25.002,14.435V419.729z M131.082,398.9v-13.679l12.096-6.83 v26.886L131.082,398.9z M123.232,371.656l-12.145-7.011v-13.967l24.373,14.073L123.232,371.656z M95.414,364.784l-12.06,6.962 l-12.139-6.958l24.198-13.971v13.967H95.414z M83.443,412.678l11.97,6.911v13.966l-24.05-13.885L83.443,412.678z M170.946,419.918 l-12.096-6.377v-44.001l12.096-6.831V419.918z M163.537,348.895l-12.229,6.906l-40.22-23.222v-13.966L163.537,348.895z M95.414,318.752v13.966l-39.927,23.053l-12.139-6.959L95.414,318.752z M15.673,351.015l4.45,2.552v77.654l-4.45,2.576V351.015z M43.631,435.723l12.08-6.992l39.703,22.923v13.967L43.631,435.723z"/> <rect x="100.31" y="64.261" width="15.673" height="26.122"/> <rect x="393.927" y="69.486" width="15.673" height="26.122"/> <rect x="238.237" y="88.816" width="26.122" height="15.673"/> <rect x="470.727" y="98.743" width="15.673" height="173.453"/> <rect x="23.51" y="108.147" width="15.673" height="120.163"/> <rect x="23.51" y="238.759" width="15.673" height="26.122"/> </g>
</svg>